<svg xmlns="http://www.w3.org/2000/svg" viewBox="0 0 748.99 269.77"><defs><style>.cls-1,.cls-3,.cls-5{fill:#603813;}.cls-1,.cls-2,.cls-4{stroke:#754c24;}.cls-1,.cls-2,.cls-3,.cls-4,.cls-5,.cls-6,.cls-7{stroke-miterlimit:10;}.cls-2{fill:#fff;}.cls-3,.cls-6,.cls-7{stroke:#fff;}.cls-4{fill:#f15a24;}.cls-5{stroke:#000;}.cls-6,.cls-7{fill:none;}.cls-7{stroke-width:2px;}</style></defs><g id="Слой_2" data-name="Слой 2"><g id="Льюеп"><polygon class="cls-1" points="580.72 60.69 747.72 109.69 615.72 185.69 580.72 60.69"/><ellipse class="cls-2" cx="644.22" cy="114.19" rx="30.5" ry="18.5"/><ellipse class="cls-3" cx="647.72" cy="112.69" rx="14" ry="8"/><path class="cls-4" d="M162.29,148.14c83.63,35.39,159.28,67.29,202.43,66.55,109.5,16.12,204.95-12.9,253-30l-37-124s-103.67-11.56-118-13c-55.28-5.56-146.32,2.2-300.43,66Z"/><path class="cls-5" d="M369.72,50.69l-38-23c-1.71-1.75-7.7-8-6-12,1.87-4.41,12.6-5.2,27-1.67l37,9.21-8.06-12.55q-5.12-5.46-3.94-8,1.95-4.17,21-.39c15.42,5.31,31.85,11.65,49,19.26a608,608,0,0,1,59,30.13,429.17,429.17,0,0,0-137-1Z"/><path class="cls-5" d="M162.72,113.69l1,35-124,47-18,4c-.59,1.9-19.43.05-21-3-1.86-3.62,8.3-15.47,17-18C33,170.14,50.07,164.15,65.3,155.61l58.16-26.45L57,104.9l-12.93-7-26-19.37L12.35,64l-.63,5.71c1.95-5.51,7.49-11.1,9.61-13,9.76-8.55,26.82-8.31,42.8.59l38.66,19,45.37,25.92Z"/><path class="cls-5" d="M354.72,213.69l-19,20c-4,5-4.72,11.58-2,16,3.76,6.09,14.15,8.18,22,2L390.66,242l11.06-7.33-7,13c-.84,1.34-6.26,10.23-3,16,3.57,6.31,17.32,8.5,32,0l68.17-48.18a445.72,445.72,0,0,1-47.17,4.18A446.82,446.82,0,0,1,354.72,213.69Z"/><line class="cls-6" x1="393.36" y1="221.45" x2="378.36" y2="229.45"/><line class="cls-6" x1="424.7" y1="221.48" x2="401.7" y2="232.48"/><line class="cls-6" x1="454.7" y1="219.84" x2="428.7" y2="237.84"/><line class="cls-6" x1="419.72" y1="21.69" x2="450.72" y2="42.69"/><line class="cls-6" x1="402.72" y1="31.69" x2="421.72" y2="42.69"/><line class="cls-6" x1="378.72" y1="36.69" x2="389.72" y2="44.69"/><line class="cls-6" x1="608.72" y1="156.69" x2="467.72" y2="218.69"/><line class="cls-6" x1="598.72" y1="128.69" x2="407.72" y2="216.69"/><line class="cls-6" x1="590.72" y1="95.69" x2="343.72" y2="211.69"/><line class="cls-6" x1="578.72" y1="64.69" x2="307.72" y2="204.69"/><line class="cls-6" x1="541.72" y1="55.69" x2="276.72" y2="192.69"/><line class="cls-6" x1="491.72" y1="50.69" x2="237.72" y2="179.69"/><line class="cls-6" x1="434.72" y1="47.69" x2="211.72" y2="163.69"/><line class="cls-6" x1="358.72" y1="52.69" x2="167.72" y2="150.69"/><line class="cls-6" x1="167.72" y1="139.69" x2="374.72" y2="216.69"/><line class="cls-6" x1="186.72" y1="105.69" x2="430.72" y2="216.69"/><line class="cls-6" x1="219.72" y1="91.69" x2="502.72" y2="213.69"/><line class="cls-6" x1="260.72" y1="77.69" x2="560.72" y2="203.69"/><line class="cls-6" x1="302.72" y1="65.69" x2="608.72" y2="189.69"/><line class="cls-6" x1="344.72" y1="54.69" x2="611.72" y2="167.69"/><line class="cls-6" x1="391.72" y1="50.69" x2="601.72" y2="130.69"/><line class="cls-6" x1="448.72" y1="47.69" x2="578.72" y2="98.69"/><line class="cls-7" x1="147.72" y1="115.69" x2="89.72" y2="94.69"/><line class="cls-7" x1="152.22" y1="125.19" x2="97.22" y2="111.19"/><line class="cls-7" x1="157.22" y1="135.19" x2="105.22" y2="147.19"/><line class="cls-7" x1="157.22" y1="143.19" x2="101.22" y2="163.19"/></g></g></svg>